<mxfile host="app.diagrams.net" modified="2023-06-18T07:50:12.364Z" agent="Mozilla/5.0 (Windows NT 10.0; Win64; x64) AppleWebKit/537.36 (KHTML, like Gecko) Chrome/114.0.0.0 Safari/537.36" etag="ef5J7UtZR6GWbUlLmtoQ" version="21.4.0" type="github">
  <diagram name="Page-1" id="GiQuvnRRpr-fwWjynW2o">
    <mxGraphModel dx="4050" dy="1269" grid="1" gridSize="10" guides="1" tooltips="1" connect="1" arrows="1" fold="1" page="1" pageScale="1" pageWidth="850" pageHeight="1100" math="0" shadow="0">
      <root>
        <mxCell id="0" />
        <mxCell id="1" parent="0" />
        <mxCell id="F2htT-uLCX55sQYAuG8i-23" style="edgeStyle=orthogonalEdgeStyle;rounded=0;orthogonalLoop=1;jettySize=auto;html=1;entryX=0;entryY=0.5;entryDx=0;entryDy=0;" edge="1" parent="1" source="F2htT-uLCX55sQYAuG8i-1" target="F2htT-uLCX55sQYAuG8i-59">
          <mxGeometry relative="1" as="geometry">
            <mxPoint x="450" y="110" as="targetPoint" />
          </mxGeometry>
        </mxCell>
        <mxCell id="F2htT-uLCX55sQYAuG8i-1" value="Start" style="ellipse;whiteSpace=wrap;html=1;" vertex="1" parent="1">
          <mxGeometry x="270" y="60" width="100" height="60" as="geometry" />
        </mxCell>
        <mxCell id="F2htT-uLCX55sQYAuG8i-4" value="&lt;div style=&quot;&quot;&gt;&lt;span style=&quot;background-color: initial;&quot;&gt;[1]&amp;nbsp; Login&lt;/span&gt;&lt;/div&gt;&lt;div style=&quot;&quot;&gt;&lt;span style=&quot;background-color: initial;&quot;&gt;&amp;nbsp; &amp;nbsp; [2] Register&lt;/span&gt;&lt;/div&gt;&lt;div style=&quot;&quot;&gt;&lt;span style=&quot;background-color: initial;&quot;&gt;[3]&amp;nbsp; &amp;nbsp; Exit&lt;/span&gt;&lt;/div&gt;" style="rounded=0;whiteSpace=wrap;html=1;align=center;" vertex="1" parent="1">
          <mxGeometry x="380" y="200" width="120" height="60" as="geometry" />
        </mxCell>
        <mxCell id="F2htT-uLCX55sQYAuG8i-13" value="" style="edgeStyle=orthogonalEdgeStyle;rounded=0;orthogonalLoop=1;jettySize=auto;html=1;entryX=0.5;entryY=0;entryDx=0;entryDy=0;" edge="1" parent="1" source="F2htT-uLCX55sQYAuG8i-5" target="F2htT-uLCX55sQYAuG8i-15">
          <mxGeometry relative="1" as="geometry">
            <mxPoint x="400" y="380" as="targetPoint" />
          </mxGeometry>
        </mxCell>
        <mxCell id="F2htT-uLCX55sQYAuG8i-18" style="edgeStyle=orthogonalEdgeStyle;rounded=0;orthogonalLoop=1;jettySize=auto;html=1;" edge="1" parent="1" source="F2htT-uLCX55sQYAuG8i-5" target="F2htT-uLCX55sQYAuG8i-19">
          <mxGeometry relative="1" as="geometry">
            <mxPoint x="300" y="285" as="targetPoint" />
          </mxGeometry>
        </mxCell>
        <mxCell id="F2htT-uLCX55sQYAuG8i-5" value="User Input" style="shape=parallelogram;perimeter=parallelogramPerimeter;whiteSpace=wrap;html=1;fixedSize=1;" vertex="1" parent="1">
          <mxGeometry x="390" y="290" width="100" height="30" as="geometry" />
        </mxCell>
        <mxCell id="F2htT-uLCX55sQYAuG8i-6" value="" style="endArrow=classic;html=1;rounded=0;exitX=0.5;exitY=1;exitDx=0;exitDy=0;entryX=0.5;entryY=0;entryDx=0;entryDy=0;" edge="1" parent="1" source="F2htT-uLCX55sQYAuG8i-4" target="F2htT-uLCX55sQYAuG8i-5">
          <mxGeometry width="50" height="50" relative="1" as="geometry">
            <mxPoint x="510" y="230" as="sourcePoint" />
            <mxPoint x="399.5" y="270" as="targetPoint" />
          </mxGeometry>
        </mxCell>
        <mxCell id="F2htT-uLCX55sQYAuG8i-27" style="edgeStyle=orthogonalEdgeStyle;rounded=0;orthogonalLoop=1;jettySize=auto;html=1;entryX=0.5;entryY=0;entryDx=0;entryDy=0;" edge="1" parent="1" source="F2htT-uLCX55sQYAuG8i-14" target="F2htT-uLCX55sQYAuG8i-26">
          <mxGeometry relative="1" as="geometry" />
        </mxCell>
        <mxCell id="F2htT-uLCX55sQYAuG8i-31" style="edgeStyle=orthogonalEdgeStyle;rounded=0;orthogonalLoop=1;jettySize=auto;html=1;entryX=0.5;entryY=0;entryDx=0;entryDy=0;" edge="1" parent="1" source="F2htT-uLCX55sQYAuG8i-14" target="F2htT-uLCX55sQYAuG8i-30">
          <mxGeometry relative="1" as="geometry" />
        </mxCell>
        <mxCell id="F2htT-uLCX55sQYAuG8i-14" value="1" style="rhombus;whiteSpace=wrap;html=1;" vertex="1" parent="1">
          <mxGeometry x="220" y="380" width="50" height="40" as="geometry" />
        </mxCell>
        <mxCell id="F2htT-uLCX55sQYAuG8i-24" style="edgeStyle=orthogonalEdgeStyle;rounded=0;orthogonalLoop=1;jettySize=auto;html=1;exitX=1;exitY=0.5;exitDx=0;exitDy=0;" edge="1" parent="1" source="F2htT-uLCX55sQYAuG8i-15" target="F2htT-uLCX55sQYAuG8i-16">
          <mxGeometry relative="1" as="geometry" />
        </mxCell>
        <mxCell id="F2htT-uLCX55sQYAuG8i-25" style="edgeStyle=orthogonalEdgeStyle;rounded=0;orthogonalLoop=1;jettySize=auto;html=1;exitX=0;exitY=0.5;exitDx=0;exitDy=0;entryX=1;entryY=0.5;entryDx=0;entryDy=0;" edge="1" parent="1" source="F2htT-uLCX55sQYAuG8i-15" target="F2htT-uLCX55sQYAuG8i-14">
          <mxGeometry relative="1" as="geometry" />
        </mxCell>
        <mxCell id="F2htT-uLCX55sQYAuG8i-71" value="" style="edgeStyle=orthogonalEdgeStyle;rounded=0;orthogonalLoop=1;jettySize=auto;html=1;" edge="1" parent="1" source="F2htT-uLCX55sQYAuG8i-15" target="F2htT-uLCX55sQYAuG8i-70">
          <mxGeometry relative="1" as="geometry" />
        </mxCell>
        <mxCell id="F2htT-uLCX55sQYAuG8i-15" value="2" style="rhombus;whiteSpace=wrap;html=1;" vertex="1" parent="1">
          <mxGeometry x="415" y="380" width="50" height="40" as="geometry" />
        </mxCell>
        <mxCell id="F2htT-uLCX55sQYAuG8i-77" value="" style="edgeStyle=orthogonalEdgeStyle;rounded=0;orthogonalLoop=1;jettySize=auto;html=1;" edge="1" parent="1" source="F2htT-uLCX55sQYAuG8i-16" target="F2htT-uLCX55sQYAuG8i-76">
          <mxGeometry relative="1" as="geometry" />
        </mxCell>
        <mxCell id="F2htT-uLCX55sQYAuG8i-16" value="3" style="rhombus;whiteSpace=wrap;html=1;" vertex="1" parent="1">
          <mxGeometry x="600" y="380" width="50" height="40" as="geometry" />
        </mxCell>
        <mxCell id="F2htT-uLCX55sQYAuG8i-22" style="edgeStyle=orthogonalEdgeStyle;rounded=0;orthogonalLoop=1;jettySize=auto;html=1;entryX=0;entryY=0.5;entryDx=0;entryDy=0;" edge="1" parent="1" source="F2htT-uLCX55sQYAuG8i-19" target="F2htT-uLCX55sQYAuG8i-1">
          <mxGeometry relative="1" as="geometry">
            <mxPoint x="250" y="160" as="targetPoint" />
          </mxGeometry>
        </mxCell>
        <mxCell id="F2htT-uLCX55sQYAuG8i-19" value="Invalid choice. Please choice again." style="rounded=0;whiteSpace=wrap;html=1;" vertex="1" parent="1">
          <mxGeometry x="195" y="280" width="100" height="50" as="geometry" />
        </mxCell>
        <mxCell id="F2htT-uLCX55sQYAuG8i-29" style="edgeStyle=orthogonalEdgeStyle;rounded=0;orthogonalLoop=1;jettySize=auto;html=1;" edge="1" parent="1" source="F2htT-uLCX55sQYAuG8i-26" target="F2htT-uLCX55sQYAuG8i-28">
          <mxGeometry relative="1" as="geometry" />
        </mxCell>
        <mxCell id="F2htT-uLCX55sQYAuG8i-26" value="LogIn as Admin" style="rounded=0;whiteSpace=wrap;html=1;" vertex="1" parent="1">
          <mxGeometry x="-160" y="440" width="120" height="40" as="geometry" />
        </mxCell>
        <mxCell id="F2htT-uLCX55sQYAuG8i-33" style="edgeStyle=orthogonalEdgeStyle;rounded=0;orthogonalLoop=1;jettySize=auto;html=1;entryX=0.5;entryY=0;entryDx=0;entryDy=0;" edge="1" parent="1" source="F2htT-uLCX55sQYAuG8i-28" target="F2htT-uLCX55sQYAuG8i-32">
          <mxGeometry relative="1" as="geometry" />
        </mxCell>
        <mxCell id="F2htT-uLCX55sQYAuG8i-28" value="Enter username:&lt;br&gt;Enter password:" style="shape=parallelogram;perimeter=parallelogramPerimeter;whiteSpace=wrap;html=1;fixedSize=1;" vertex="1" parent="1">
          <mxGeometry x="-165" y="530" width="130" height="40" as="geometry" />
        </mxCell>
        <mxCell id="F2htT-uLCX55sQYAuG8i-63" style="edgeStyle=orthogonalEdgeStyle;rounded=0;orthogonalLoop=1;jettySize=auto;html=1;entryX=0.5;entryY=0;entryDx=0;entryDy=0;" edge="1" parent="1" source="F2htT-uLCX55sQYAuG8i-30" target="F2htT-uLCX55sQYAuG8i-62">
          <mxGeometry relative="1" as="geometry" />
        </mxCell>
        <mxCell id="F2htT-uLCX55sQYAuG8i-30" value="LogIn as Student" style="rounded=0;whiteSpace=wrap;html=1;" vertex="1" parent="1">
          <mxGeometry x="185" y="450" width="120" height="40" as="geometry" />
        </mxCell>
        <mxCell id="F2htT-uLCX55sQYAuG8i-34" style="edgeStyle=orthogonalEdgeStyle;rounded=0;orthogonalLoop=1;jettySize=auto;html=1;exitX=0.5;exitY=1;exitDx=0;exitDy=0;entryX=0.5;entryY=0;entryDx=0;entryDy=0;" edge="1" parent="1" source="F2htT-uLCX55sQYAuG8i-32" target="F2htT-uLCX55sQYAuG8i-42">
          <mxGeometry relative="1" as="geometry">
            <mxPoint x="60" y="730" as="targetPoint" />
            <mxPoint x="-20" y="670" as="sourcePoint" />
          </mxGeometry>
        </mxCell>
        <mxCell id="F2htT-uLCX55sQYAuG8i-32" value="&lt;div style=&quot;&quot;&gt;&lt;div&gt;Admin Menu&lt;/div&gt;&lt;/div&gt;" style="rounded=0;whiteSpace=wrap;html=1;align=center;" vertex="1" parent="1">
          <mxGeometry x="-160" y="640" width="120" height="40" as="geometry" />
        </mxCell>
        <mxCell id="F2htT-uLCX55sQYAuG8i-36" style="edgeStyle=orthogonalEdgeStyle;rounded=0;orthogonalLoop=1;jettySize=auto;html=1;entryX=0.5;entryY=0;entryDx=0;entryDy=0;" edge="1" parent="1" source="F2htT-uLCX55sQYAuG8i-35" target="F2htT-uLCX55sQYAuG8i-37">
          <mxGeometry relative="1" as="geometry">
            <mxPoint x="-85" y="730" as="targetPoint" />
          </mxGeometry>
        </mxCell>
        <mxCell id="F2htT-uLCX55sQYAuG8i-35" value="1" style="rhombus;whiteSpace=wrap;html=1;" vertex="1" parent="1">
          <mxGeometry x="-360" y="725" width="50" height="50" as="geometry" />
        </mxCell>
        <mxCell id="F2htT-uLCX55sQYAuG8i-38" style="edgeStyle=orthogonalEdgeStyle;rounded=0;orthogonalLoop=1;jettySize=auto;html=1;entryX=0.5;entryY=0;entryDx=0;entryDy=0;" edge="1" parent="1" source="F2htT-uLCX55sQYAuG8i-37" target="F2htT-uLCX55sQYAuG8i-40">
          <mxGeometry relative="1" as="geometry">
            <mxPoint x="-85" y="830" as="targetPoint" />
          </mxGeometry>
        </mxCell>
        <mxCell id="F2htT-uLCX55sQYAuG8i-37" value="Read File" style="shape=parallelogram;perimeter=parallelogramPerimeter;whiteSpace=wrap;html=1;fixedSize=1;" vertex="1" parent="1">
          <mxGeometry x="-400" y="820" width="130" height="40" as="geometry" />
        </mxCell>
        <mxCell id="F2htT-uLCX55sQYAuG8i-46" value="" style="edgeStyle=orthogonalEdgeStyle;rounded=0;orthogonalLoop=1;jettySize=auto;html=1;" edge="1" parent="1" source="F2htT-uLCX55sQYAuG8i-40" target="F2htT-uLCX55sQYAuG8i-45">
          <mxGeometry relative="1" as="geometry" />
        </mxCell>
        <mxCell id="F2htT-uLCX55sQYAuG8i-40" value="Update Information" style="rounded=0;whiteSpace=wrap;html=1;align=center;" vertex="1" parent="1">
          <mxGeometry x="-395" y="900" width="120" height="60" as="geometry" />
        </mxCell>
        <mxCell id="F2htT-uLCX55sQYAuG8i-44" style="edgeStyle=orthogonalEdgeStyle;rounded=0;orthogonalLoop=1;jettySize=auto;html=1;entryX=1;entryY=0.5;entryDx=0;entryDy=0;" edge="1" parent="1" source="F2htT-uLCX55sQYAuG8i-42" target="F2htT-uLCX55sQYAuG8i-35">
          <mxGeometry relative="1" as="geometry" />
        </mxCell>
        <mxCell id="F2htT-uLCX55sQYAuG8i-48" value="" style="edgeStyle=orthogonalEdgeStyle;rounded=0;orthogonalLoop=1;jettySize=auto;html=1;" edge="1" parent="1" source="F2htT-uLCX55sQYAuG8i-42" target="F2htT-uLCX55sQYAuG8i-47">
          <mxGeometry relative="1" as="geometry" />
        </mxCell>
        <mxCell id="F2htT-uLCX55sQYAuG8i-56" value="" style="edgeStyle=orthogonalEdgeStyle;rounded=0;orthogonalLoop=1;jettySize=auto;html=1;" edge="1" parent="1" source="F2htT-uLCX55sQYAuG8i-42" target="F2htT-uLCX55sQYAuG8i-55">
          <mxGeometry relative="1" as="geometry" />
        </mxCell>
        <mxCell id="F2htT-uLCX55sQYAuG8i-42" value="&lt;div style=&quot;&quot;&gt;&lt;div&gt;[1] Check Enrollees&lt;span style=&quot;background-color: initial;&quot;&gt;&amp;nbsp; [2] Check Enrolled&lt;/span&gt;&lt;/div&gt;&lt;div&gt;&lt;span style=&quot;background-color: initial;&quot;&gt;[3] Logout&lt;/span&gt;&lt;/div&gt;&lt;/div&gt;" style="rounded=0;whiteSpace=wrap;html=1;align=center;" vertex="1" parent="1">
          <mxGeometry x="-160" y="715" width="120" height="70" as="geometry" />
        </mxCell>
        <mxCell id="F2htT-uLCX55sQYAuG8i-45" value="Return to Admin Menu" style="whiteSpace=wrap;html=1;rounded=0;" vertex="1" parent="1">
          <mxGeometry x="-395" y="1020" width="120" height="60" as="geometry" />
        </mxCell>
        <mxCell id="F2htT-uLCX55sQYAuG8i-50" value="" style="edgeStyle=orthogonalEdgeStyle;rounded=0;orthogonalLoop=1;jettySize=auto;html=1;entryX=0.5;entryY=0;entryDx=0;entryDy=0;" edge="1" parent="1" source="F2htT-uLCX55sQYAuG8i-47" target="F2htT-uLCX55sQYAuG8i-78">
          <mxGeometry relative="1" as="geometry">
            <mxPoint x="-100" y="930" as="targetPoint" />
          </mxGeometry>
        </mxCell>
        <mxCell id="F2htT-uLCX55sQYAuG8i-47" value="2" style="rhombus;whiteSpace=wrap;html=1;rounded=0;" vertex="1" parent="1">
          <mxGeometry x="-125" y="830" width="50" height="50" as="geometry" />
        </mxCell>
        <mxCell id="F2htT-uLCX55sQYAuG8i-52" value="" style="edgeStyle=orthogonalEdgeStyle;rounded=0;orthogonalLoop=1;jettySize=auto;html=1;entryX=0.5;entryY=0;entryDx=0;entryDy=0;" edge="1" parent="1" target="F2htT-uLCX55sQYAuG8i-51">
          <mxGeometry relative="1" as="geometry">
            <mxPoint x="-100" y="990" as="sourcePoint" />
          </mxGeometry>
        </mxCell>
        <mxCell id="F2htT-uLCX55sQYAuG8i-54" value="" style="edgeStyle=orthogonalEdgeStyle;rounded=0;orthogonalLoop=1;jettySize=auto;html=1;" edge="1" parent="1" source="F2htT-uLCX55sQYAuG8i-51" target="F2htT-uLCX55sQYAuG8i-53">
          <mxGeometry relative="1" as="geometry" />
        </mxCell>
        <mxCell id="F2htT-uLCX55sQYAuG8i-51" value="Press any key to quit" style="shape=parallelogram;perimeter=parallelogramPerimeter;whiteSpace=wrap;html=1;fixedSize=1;rounded=0;" vertex="1" parent="1">
          <mxGeometry x="-175" y="1050" width="150" height="60" as="geometry" />
        </mxCell>
        <mxCell id="F2htT-uLCX55sQYAuG8i-53" value="Return to Admin Menu" style="whiteSpace=wrap;html=1;rounded=0;" vertex="1" parent="1">
          <mxGeometry x="-160" y="1160" width="120" height="60" as="geometry" />
        </mxCell>
        <mxCell id="F2htT-uLCX55sQYAuG8i-58" value="" style="edgeStyle=orthogonalEdgeStyle;rounded=0;orthogonalLoop=1;jettySize=auto;html=1;" edge="1" parent="1" source="F2htT-uLCX55sQYAuG8i-55" target="F2htT-uLCX55sQYAuG8i-57">
          <mxGeometry relative="1" as="geometry" />
        </mxCell>
        <mxCell id="F2htT-uLCX55sQYAuG8i-55" value="3" style="rhombus;whiteSpace=wrap;html=1;rounded=0;" vertex="1" parent="1">
          <mxGeometry x="50" y="725" width="50" height="50" as="geometry" />
        </mxCell>
        <mxCell id="F2htT-uLCX55sQYAuG8i-57" value="Return to Main Menu" style="whiteSpace=wrap;html=1;rounded=0;" vertex="1" parent="1">
          <mxGeometry x="15" y="830" width="120" height="60" as="geometry" />
        </mxCell>
        <mxCell id="F2htT-uLCX55sQYAuG8i-61" style="edgeStyle=orthogonalEdgeStyle;rounded=0;orthogonalLoop=1;jettySize=auto;html=1;entryX=0.583;entryY=0.032;entryDx=0;entryDy=0;entryPerimeter=0;" edge="1" parent="1" source="F2htT-uLCX55sQYAuG8i-59" target="F2htT-uLCX55sQYAuG8i-4">
          <mxGeometry relative="1" as="geometry" />
        </mxCell>
        <mxCell id="F2htT-uLCX55sQYAuG8i-59" value="&lt;div style=&quot;&quot;&gt;Main Menu&lt;/div&gt;" style="rounded=0;whiteSpace=wrap;html=1;align=center;" vertex="1" parent="1">
          <mxGeometry x="390" y="60" width="120" height="60" as="geometry" />
        </mxCell>
        <mxCell id="F2htT-uLCX55sQYAuG8i-65" value="" style="edgeStyle=orthogonalEdgeStyle;rounded=0;orthogonalLoop=1;jettySize=auto;html=1;" edge="1" parent="1" source="F2htT-uLCX55sQYAuG8i-62" target="F2htT-uLCX55sQYAuG8i-64">
          <mxGeometry relative="1" as="geometry" />
        </mxCell>
        <mxCell id="F2htT-uLCX55sQYAuG8i-62" value="Enter username:&lt;br&gt;Enter password:" style="shape=parallelogram;perimeter=parallelogramPerimeter;whiteSpace=wrap;html=1;fixedSize=1;" vertex="1" parent="1">
          <mxGeometry x="180" y="530" width="130" height="40" as="geometry" />
        </mxCell>
        <mxCell id="F2htT-uLCX55sQYAuG8i-68" value="" style="edgeStyle=orthogonalEdgeStyle;rounded=0;orthogonalLoop=1;jettySize=auto;html=1;" edge="1" parent="1" source="F2htT-uLCX55sQYAuG8i-64" target="F2htT-uLCX55sQYAuG8i-67">
          <mxGeometry relative="1" as="geometry" />
        </mxCell>
        <mxCell id="F2htT-uLCX55sQYAuG8i-64" value="Display Information" style="whiteSpace=wrap;html=1;" vertex="1" parent="1">
          <mxGeometry x="185" y="600" width="120" height="60" as="geometry" />
        </mxCell>
        <mxCell id="F2htT-uLCX55sQYAuG8i-67" value="Return to Main Menu" style="whiteSpace=wrap;html=1;" vertex="1" parent="1">
          <mxGeometry x="185" y="700" width="120" height="60" as="geometry" />
        </mxCell>
        <mxCell id="F2htT-uLCX55sQYAuG8i-73" value="" style="edgeStyle=orthogonalEdgeStyle;rounded=0;orthogonalLoop=1;jettySize=auto;html=1;" edge="1" parent="1" source="F2htT-uLCX55sQYAuG8i-70" target="F2htT-uLCX55sQYAuG8i-72">
          <mxGeometry relative="1" as="geometry" />
        </mxCell>
        <mxCell id="F2htT-uLCX55sQYAuG8i-70" value="Student Type:" style="whiteSpace=wrap;html=1;" vertex="1" parent="1">
          <mxGeometry x="380" y="490" width="120" height="60" as="geometry" />
        </mxCell>
        <mxCell id="F2htT-uLCX55sQYAuG8i-75" value="" style="edgeStyle=orthogonalEdgeStyle;rounded=0;orthogonalLoop=1;jettySize=auto;html=1;" edge="1" parent="1" source="F2htT-uLCX55sQYAuG8i-72" target="F2htT-uLCX55sQYAuG8i-74">
          <mxGeometry relative="1" as="geometry" />
        </mxCell>
        <mxCell id="F2htT-uLCX55sQYAuG8i-72" value="[1] Enroll Student" style="whiteSpace=wrap;html=1;" vertex="1" parent="1">
          <mxGeometry x="380" y="630" width="120" height="60" as="geometry" />
        </mxCell>
        <mxCell id="F2htT-uLCX55sQYAuG8i-74" value="Student Register Account" style="shape=parallelogram;perimeter=parallelogramPerimeter;whiteSpace=wrap;html=1;fixedSize=1;" vertex="1" parent="1">
          <mxGeometry x="375" y="775" width="130" height="60" as="geometry" />
        </mxCell>
        <mxCell id="F2htT-uLCX55sQYAuG8i-76" value="Exit" style="whiteSpace=wrap;html=1;" vertex="1" parent="1">
          <mxGeometry x="565" y="490" width="120" height="60" as="geometry" />
        </mxCell>
        <mxCell id="F2htT-uLCX55sQYAuG8i-78" value="Enter Student Last Name" style="shape=parallelogram;perimeter=parallelogramPerimeter;whiteSpace=wrap;html=1;fixedSize=1;rounded=0;" vertex="1" parent="1">
          <mxGeometry x="-185" y="930" width="170" height="60" as="geometry" />
        </mxCell>
      </root>
    </mxGraphModel>
  </diagram>
</mxfile>
